<?xml version="1.0" standalone="no"?>
<!DOCTYPE svg PUBLIC "-//W3C//DTD SVG 20010904//EN"
 "http://www.w3.org/TR/2001/REC-SVG-20010904/DTD/svg10.dtd">
<svg version="1.0" xmlns="http://www.w3.org/2000/svg"
 width="260.000000pt" height="260.000000pt" viewBox="0 0 260.000000 260.000000"
 preserveAspectRatio="xMidYMid meet">
<metadata>
Created by potrace 1.11, written by Peter Selinger 2001-2013
</metadata>
<g transform="translate(0.000000,260.000000) scale(0.100000,-0.100000)"
fill="#000000" stroke="none">
<path d="M129 2417 c-60 -16 -57 29 -58 -1131 l0 -1059 29 -28 28 -29 905 0
904 0 27 25 c22 20 26 33 27 77 0 29 0 180 0 335 l0 282 290 289 c159 160 290
297 290 306 1 9 2 23 2 31 0 8 -1 20 -2 27 -2 18 -431 447 -465 465 -31 16
-71 11 -97 -13 -15 -13 -16 2 -17 175 -1 197 -5 221 -44 242 -26 14 -1767 19
-1819 6z m1689 -172 c3 -3 5 -103 5 -222 l-1 -217 -327 -326 c-297 -296 -360
-364 -350 -380 2 -3 6 -66 10 -140 3 -74 8 -167 10 -207 7 -135 7 -136 290
-148 83 -4 164 -8 180 -10 36 -3 67 15 116 64 72 74 67 84 66 -129 l0 -190
-787 0 -787 0 0 954 0 955 26 3 c47 5 1543 -1 1549 -7z m542 -728 c0 -6 -599
-617 -714 -728 -18 -17 -28 -22 -46 -21 -101 4 -264 13 -266 14 -1 2 -5 68 -9
147 l-6 145 373 373 373 373 147 -147 c82 -81 148 -152 148 -156z"/>
<path d="M539 1867 c-45 -35 -50 -88 -11 -127 l29 -28 463 -1 c516 0 522 1
538 61 10 38 -6 81 -37 98 -30 15 -961 13 -982 -3z"/>
</g>
</svg>
