<?xml version="1.0" encoding="utf-8"?>
<!-- Generator: Adobe Illustrator 18.1.1, SVG Export Plug-In . SVG Version: 6.00 Build 0)  -->
<svg version="1.1" id="Layer_1" xmlns="http://www.w3.org/2000/svg" xmlns:xlink="http://www.w3.org/1999/xlink" x="0px" y="0px"
	 viewBox="115.3 0 60 60" enable-background="new 115.3 0 60 60" xml:space="preserve">
<g>
	<path fill="#FED301" d="M164.6,40c-3.5-1.7-6.1-6.9-6.1-7c0,0,0,0,0-0.1c-0.1-0.2-0.2-0.4-0.3-0.6c-1.9-3.7-5.4-6.5-9.6-7.8
		c-0.8-0.5-8.6-5.6-10.8-9.2c-0.6-1.1-1.3-1.7-2.1-1.8c-0.6-0.1-1.1,0.1-1.3,0.3c-0.1,0-0.1-0.1-0.1-0.1c-0.3-0.2-0.7-0.1-0.9,0.1
		c-1.2,1.3-2.2,3.4-2.7,4.5c-1-1.3-2-2-3.1-2.1c-1.1-0.1-1.8,0.5-1.9,0.6c-0.2,0.2-0.3,0.5-0.2,0.8c0.8,2.3,2.9,6.1,3.3,6.9
		c-0.3,0.8-0.5,1.6-0.7,2c-0.3,0.9-0.2,1.9,0.3,2.7c1.3,2,3.4,5,3.8,5.6c0.4,1.8,0.9,3.8,1.5,5.5c0.4,1,1.2,1.5,1.9,2
		c0.4,0.2,0.7,0.5,1,0.7c0,0,0,0,0,0c0.3,0.4,0.7,0.7,1.2,0.8c2.1,0.6,4.4,1.2,7,1.5c2.4,0.4,4.6,1.3,6.4,2.6c1.2,0.9,2.1,2,2.9,3.2
		c0.1,0.2,0.4,0.3,0.6,0.3c0.1,0,0.3,0,0.4-0.1c0.3-0.2,0.4-0.7,0.2-1c-0.8-1.3-1.9-2.5-3.2-3.5c-0.5-0.4-0.9-0.7-1.5-1
		c0.3,0,0.5-0.1,0.7-0.1c0.4-0.1,0.6-0.5,0.5-0.9c-0.1-0.4-0.5-0.6-0.9-0.5c-0.5,0.1-2.4,0.5-3.8,0.1c0,0,0,0,0,0
		c-0.7-0.2-1.4-0.4-2.1-0.5c-2.5-0.4-4.8-0.9-6.8-1.5c-0.3-0.1-0.5-0.3-0.6-0.6c-0.5-1.8-1.8-6.3-2.1-9.9c0-0.2,0.1-0.3,0.2-0.5
		c0.9-0.7,3.3-2.5,5-3.4c0.1,0,0.1,0,0.2,0c0.8,0,3.3,0.2,5,0.8c-0.5,0.7-1.7,1.7-4.7,1.3c-0.3,0-0.6,0.1-0.7,0.4
		c-0.4,0.8-1.1,2.2-1.4,2.5c-0.3,0.2-0.3,0.6-0.1,0.9c0,0,1.1,1.6,0.6,3c-0.1,0.4,0.1,0.8,0.4,0.9c0.4,0.1,0.8-0.1,0.9-0.4
		c0.1-0.2,0.1-0.4,0.1-0.6c0.3-0.1,1-0.2,2.1,0.3c0.1,0.4,0.2,1.1-0.1,1.8c-0.1,0.4,0.1,0.8,0.4,0.9c0.1,0,0.2,0,0.2,0
		c0.3,0,0.6-0.2,0.7-0.5c0.3-0.9,0.3-1.7,0.2-2.3c1.1-0.7,5.2-3,9.8-1.6c0.4,0.1,0.8-0.1,0.9-0.5c0.1-0.4-0.1-0.8-0.5-0.9
		c-1.4-0.4-2.8-0.6-4.1-0.5c-2.1-0.6-3.2-2.3-3.2-2.3c-0.2-0.3-0.7-0.4-1-0.2c-0.3,0.2-0.4,0.7-0.2,1c0,0.1,0.7,1.1,1.9,1.9
		c-2.1,0.5-3.7,1.4-4.4,1.9c-1.2-0.6-2.2-0.6-2.9-0.5c-0.1-0.7-0.4-1.3-0.6-1.7c0.5-0.6,0.9-1.5,1.2-2.1c5.2,0.4,6-2.9,6-3
		c0.1-0.3-0.1-0.7-0.4-0.8c-0.6-0.3-1.4-0.6-2.2-0.7c-1.8-1.9-3.7-2.5-3.8-2.5c-0.1,0-0.2,0-0.3,0c-0.5,0.1-1.1,0.2-1.6,0.3
		c-0.9-1-1.1-1.7-1.1-1.7c-0.1-0.2-0.2-0.3-0.4-0.4c-1.6-0.7-2.2-1.7-2.4-2.2c0.8-1.4,1-2.7,0.7-3.9c-0.1-0.6-0.4-1.2-0.7-1.6
		c0.2,0,0.6,0.3,1.1,1.1c2.5,4.2,11,9.6,11.3,9.8c0,0,0,0,0,0c0.1,0,0.1,0.1,0.2,0.1c3.9,1.1,7.1,3.7,8.8,7.1c1,2,1.4,4,0.9,5.4
		c-0.3,0.8-1.3,2.4-3.1,3.3c-0.4,0.2-0.5,0.6-0.3,1c0.1,0.2,0.4,0.4,0.6,0.4c0.1,0,0.2,0,0.3-0.1c2-1,3.4-2.9,3.8-4.1
		c0.2-0.5,0.2-1,0.3-1.6c1.1,1.5,2.7,3.1,4.5,4c0.1,0,0.2,0.1,0.3,0.1c0.3,0,0.5-0.1,0.6-0.4C165.1,40.6,165,40.1,164.6,40z
		 M127.1,17.7c0.1,0,0.2,0,0.3,0c0.5,0.1,1.4,0.4,2.7,2.4c-0.2,0.8-0.4,1.6-0.7,2.5C128.7,21.3,127.7,19.3,127.1,17.7z M129.7,28.4
		c-0.3-0.4-0.3-1-0.2-1.5c0.6-1.9,1.7-5.3,2.1-7.4c0.2-0.4,1.1-2.7,2.3-4.2c0.3,0.3,0.7,0.8,0.9,1.5c0.2,1-0.1,2.1-0.8,3.3
		c-0.1,0.1-0.1,0.2-0.1,0.3c0,0-0.3,3.2-1.2,4.8c-0.1,0.2-0.1,0.5,0,0.7l0.4,0.8c-0.2,0.1-0.3,0.1-0.5,0.2c-1,0.4-1.6,1.5-1.4,2.6
		c0.1,0.3,0.1,0.7,0.2,1.1c0,0.2,0.1,0.4,0.1,0.6C130.9,30.3,130.2,29.3,129.7,28.4z M141.1,26c0.2,0.1,0.7,0.3,1.3,0.7
		c-0.5,0-0.9-0.1-1.2-0.1c-0.3,0-0.7,0.1-0.9,0.2c-1.8,0.9-4,2.6-5.2,3.5c-0.5,0.4-0.8,1-0.8,1.7c0.2,2.9,1,6.4,1.7,8.7
		c-0.3-0.2-0.6-0.5-0.7-0.8c-1.1-3.1-1.8-6.9-2.3-9.4c-0.1-0.4-0.2-0.8-0.2-1.1c-0.1-0.4,0.1-0.8,0.5-1
		C134.7,27.7,137.8,26.6,141.1,26z M137.1,23.9c0.1,0.3,0.4,0.8,0.8,1.3c-1.3,0.3-2.5,0.7-3.5,1.1l-0.3-0.6c0.5-1,0.8-2.3,1-3.3
		C135.5,22.9,136.2,23.4,137.1,23.9z"/>
	<path fill="#FED301" d="M135.4,12.3c0.1,0,0.2,0,0.2,0c0.3,0,0.6-0.2,0.7-0.5l0.8-2.4c0.1-0.4-0.1-0.8-0.4-0.9
		c-0.4-0.1-0.8,0.1-0.9,0.4l-0.8,2.4C134.8,11.7,135,12.2,135.4,12.3z"/>
	<path fill="#FED301" d="M132.3,12.6c0.1,0.3,0.4,0.5,0.7,0.5c0.1,0,0.2,0,0.3,0c0.4-0.1,0.6-0.6,0.4-0.9l-1.1-2.9
		c-0.1-0.4-0.6-0.6-0.9-0.4c-0.4,0.1-0.6,0.6-0.4,0.9L132.3,12.6z"/>
	<path fill="#FED301" d="M127.3,12.1l3,2.2c0.1,0.1,0.3,0.1,0.4,0.1c0.2,0,0.4-0.1,0.6-0.3c0.2-0.3,0.2-0.8-0.2-1l-3-2.2
		c-0.3-0.2-0.8-0.2-1,0.2C126.9,11.4,127,11.9,127.3,12.1z"/>
</g>
</svg>
