<?xml version="1.0" encoding="utf-8"?>
<!-- Generator: Adobe Illustrator 18.1.1, SVG Export Plug-In . SVG Version: 6.00 Build 0)  -->
<svg version="1.1" id="Layer_1" xmlns="http://www.w3.org/2000/svg" xmlns:xlink="http://www.w3.org/1999/xlink" x="0px" y="0px"
	 viewBox="120 0 60 60" enable-background="new 120 0 60 60" xml:space="preserve">
<g>
	<path fill="#FED301" d="M135,44.5V50h-4.7v-3.6C131.8,45.9,133.4,45.3,135,44.5z"/>
	<path fill="#FED301" d="M141.8,41.2V50h-4.7v-6.4C138.6,42.9,140.2,42,141.8,41.2z"/>
	<path fill="#FED301" d="M148.5,37.1V50h-4.7V40C145.4,39.1,146.9,38.1,148.5,37.1z"/>
	<path fill="#FED301" d="M155.2,32.3V50h-4.7V35.8C152.2,34.6,153.7,33.5,155.2,32.3z"/>
	<path fill="#FED301" d="M162,26.2V50h-4.8V30.5C159,29.1,160.6,27.7,162,26.2z"/>
	<path fill="#FED301" d="M169.6,15.4V50h-4.7V23C166.9,20.5,168.6,18,169.6,15.4z"/>
	<path fill="#FED301" d="M126.8,42.7c13.8-4.1,37.6-20,40.4-32.7l-2.8,2.1l-1.3-1.7l5.7-4.4l4.4,5.8l-1.7,1.3l-2.1-2.8
		c-3.1,13.9-28,30.7-42.6,34.7V42.7z"/>
	<polygon fill="#FED301" points="126.8,51.8 173,51.8 173,54 126.8,54 	"/>
</g>
<text transform="matrix(1 0 0 1 126.826 54.9541)" fill="#FED301" font-family="'HelveticaNeue-Bold'" font-size="0.3179">Created by Kangrif</text>
<text transform="matrix(1 0 0 1 126.826 55.2715)" fill="#FED301" font-family="'HelveticaNeue-Bold'" font-size="0.3179">from the Noun Project</text>
</svg>
