<?xml version="1.0" encoding="utf-8"?>
<!-- Generator: Adobe Illustrator 18.1.1, SVG Export Plug-In . SVG Version: 6.00 Build 0)  -->
<svg version="1.1" id="Layer_1" xmlns="http://www.w3.org/2000/svg" xmlns:xlink="http://www.w3.org/1999/xlink" x="0px" y="0px"
	 viewBox="128.2 0 60 60" enable-background="new 128.2 0 60 60" xml:space="preserve">
<g>
	<polygon fill="#FED301" points="157.3,35.4 156.5,34.5 155.7,35.3 157.3,36.9 160.9,33.4 160.1,32.6 	"/>
	<path fill="#FED301" d="M158.3,29.8c-2.6,0-4.7,2.1-4.7,4.7s2.1,4.7,4.7,4.7s4.7-2.1,4.7-4.7S160.9,29.8,158.3,29.8z M158.3,38.2
		c-2,0-3.6-1.6-3.6-3.6s1.6-3.6,3.6-3.6s3.6,1.6,3.6,3.6S160.3,38.2,158.3,38.2z"/>
	<path fill="#FED301" d="M158.3,16c-4.1,0-7.5,3.4-7.5,7.5v3.9c-1.7,0.2-3.1,1.7-3.1,3.5v7.2c0,1.9,1.6,3.5,3.5,3.5h14.2
		c1.9,0,3.5-1.6,3.5-3.5v-7.2c0-1.8-1.3-3.2-3.1-3.5v-3.9C165.8,19.4,162.4,16,158.3,16z M161.9,27.5h-7.3v-3.8c0-2,1.5-3.7,3.4-3.8
		c1-0.1,2,0.3,2.7,1c0.7,0.7,1.2,1.6,1.2,2.7V27.5z M158.3,17.1c3.5,0,6.4,2.9,6.4,6.4v3.8H163v-3.8c0-1.3-0.5-2.6-1.5-3.5
		c-1-0.9-2.2-1.3-3.5-1.3c-2.5,0.1-4.4,2.3-4.4,4.9v3.8h-1.7v-3.9C151.9,20,154.7,17.1,158.3,17.1z M167.8,30.9h-1.3V32h1.4v1.2
		h-1.7v1.1h1.7v1.3h-1.7v1.1h1.7V38h-1.4v1.1h1.3c-0.3,1-1.2,1.6-2.3,1.6h-14.3c-1,0-1.9-0.7-2.3-1.6h1.3V38h-1.4v-1.3h1.7v-1.1
		h-1.7v-1.3h1.7v-1.1h-1.7V32h1.4v-1.1h-1.3c0-1.3,1.1-2.4,2.4-2.4h14.2C166.7,28.6,167.7,29.6,167.8,30.9z"/>
	<path fill="#FED301" d="M143.4,16.2c3.2-3.3,7.5-5.5,12.1-6.1c0.4,1.2,1.4,2.1,2.7,2.1c1.6,0,2.9-1.3,2.9-2.9s-1.3-2.9-2.9-2.9
		c-1.5,0-2.7,1.1-2.8,2.5c-4.9,0.6-9.5,2.9-12.8,6.4L143.4,16.2z M158.3,7.5c1,0,1.8,0.8,1.8,1.8s-0.8,1.8-1.8,1.8
		c-1,0-1.8-0.8-1.8-1.8C156.5,8.3,157.3,7.5,158.3,7.5z"/>
	<path fill="#FED301" d="M137.3,36.8l1-0.3c-0.6-1.9-0.8-3.8-0.8-5.8c0-2.7,0.5-5.5,1.6-8c0.2,0.1,0.5,0.1,0.7,0.1
		c1,0,2-0.5,2.5-1.4c0.4-0.7,0.5-1.4,0.3-2.1c-0.2-0.7-0.7-1.3-1.3-1.8c-0.4-0.2-1-0.4-1.5-0.4c-1,0-2,0.5-2.5,1.4
		c-0.3,0.6-0.4,1.4-0.2,2.1c0.1,0.6,0.5,1.1,1,1.5c-1.1,2.7-1.7,5.5-1.7,8.5C136.4,32.7,136.7,34.9,137.3,36.8z M138.4,19
		c0.3-0.5,0.9-0.9,1.6-0.9c0.3,0,0.6,0.1,0.9,0.2c0.4,0.2,0.7,0.6,0.8,1.1c0.1,0.4,0.1,1-0.1,1.3c-0.5,0.8-1.6,1.1-2.4,0.6
		c-0.4-0.2-0.7-0.6-0.8-1.1C138.1,19.9,138.1,19.4,138.4,19z"/>
	<path fill="#FED301" d="M141.8,43.2c0.4-0.4,0.6-0.7,0.7-1.3c0.2-0.7,0.1-1.5-0.3-2.2c-0.5-0.9-1.5-1.5-2.5-1.5
		c-0.5,0-1,0.1-1.4,0.4c-0.7,0.4-1.1,1-1.3,1.7c-0.2,0.7-0.1,1.5,0.3,2.2c0.5,0.9,1.5,1.5,2.5,1.5c0.4,0,0.7-0.1,1.1-0.2
		c2.9,3.8,6.9,6.6,11.4,7.8l0.3-1C148.3,49.4,144.5,46.7,141.8,43.2z M138.2,42c-0.2-0.4-0.3-0.9-0.1-1.3s0.4-0.8,0.8-1
		c0.3-0.1,0.6-0.2,0.9-0.2c0.7,0,1.3,0.4,1.6,0.9c0.2,0.4,0.3,0.9,0.1,1.3c-0.1,0.4-0.4,0.8-0.8,1C139.8,43.2,138.7,42.8,138.2,42z"
		/>
	<path fill="#FED301" d="M173,45.3c-3.2,3.2-7.5,5.3-12,5.9c-0.1-0.4-0.4-0.9-0.7-1.3c-0.5-0.5-1.3-0.9-2.1-0.9
		c-1.6,0-2.9,1.3-2.9,2.8c0,1.6,1.3,2.9,2.8,2.9l0,0c1.5,0,2.7-1.1,2.8-2.5c4.8-0.6,9.2-2.8,12.7-6.3L173,45.3z M158.3,53.7v0.5
		V53.7c-1,0-1.8-0.8-1.8-1.8c0-1,0.8-1.8,1.8-1.8c0.4,0,0.9,0.2,1.3,0.5c0.3,0.4,0.5,0.8,0.5,1.3C160.1,52.9,159.3,53.7,158.3,53.7z
		"/>
	<path fill="#FED301" d="M174.9,18.2c-0.4,0.4-0.6,0.7-0.7,1.3c-0.2,0.7-0.1,1.5,0.2,2.2c0.5,0.9,1.5,1.5,2.5,1.5
		c0.5,0,1-0.1,1.4-0.4c1.4-0.7,1.8-2.5,1.1-3.9c-0.5-0.9-1.5-1.5-2.5-1.5c-0.4,0-0.7,0.1-1,0.2c-3-4.1-7.4-7-12.3-8.2l-0.3,1.1
		C168,11.7,172.1,14.4,174.9,18.2z M178.5,19.4c0.4,0.8,0.1,1.9-0.7,2.4c-0.8,0.4-1.9,0.1-2.4-0.7c-0.2-0.4-0.3-0.9-0.1-1.3
		c0.1-0.4,0.4-0.8,0.8-1c0.3-0.1,0.6-0.2,0.9-0.2C177.6,18.5,178.2,18.9,178.5,19.4z"/>
	<path fill="#FED301" d="M178.4,39.3c1.2-2.7,1.8-5.7,1.8-8.6c0-1.8-0.2-3.8-0.7-5.5l-1.1,0.3c0.4,1.7,0.7,3.5,0.7,5.2
		c0,2.8-0.6,5.5-1.7,8.1c-0.2-0.1-0.5-0.1-0.8-0.1c-1,0-1.9,0.5-2.4,1.4c-0.8,1.3-0.4,3.1,1,3.9c0.4,0.3,1,0.4,1.5,0.4
		c1,0,1.9-0.5,2.4-1.4c0.4-0.7,0.5-1.4,0.3-2.1C179.3,40.2,178.9,39.7,178.4,39.3z M178.1,42.5c-0.4,0.8-1.6,1.1-2.4,0.6
		c-0.8-0.5-1.1-1.6-0.6-2.4c0.3-0.5,0.9-0.9,1.6-0.9c0.3,0,0.6,0.1,0.9,0.2c0.4,0.2,0.7,0.6,0.8,1.1C178.5,41.6,178.4,42,178.1,42.5
		z"/>
</g>
<image overflow="visible" width="564" height="2810" xlink:href="c1cfef0c82f0929b8f09dcc82f677db3.jpg"  transform="matrix(1 0 0 1 528.7348 -392.07)">
</image>
</svg>
